<svg width="1024" height="1024" viewBox="0 0 1024 1024" xmlns="http://www.w3.org/2000/svg">
  <defs>
    <!-- Fueki brand gradient -->
    <linearGradient id="fuekiGradient" x1="0%" y1="0%" x2="100%" y2="100%">
      <stop offset="0%" style="stop-color:#2563EB;stop-opacity:1" />
      <stop offset="100%" style="stop-color:#3B82F6;stop-opacity:1" />
    </linearGradient>

    <!-- Subtle glow effect -->
    <filter id="glow">
      <feGaussianBlur stdDeviation="8" result="coloredBlur"/>
      <feMerge>
        <feMergeNode in="coloredBlur"/>
        <feMergeNode in="SourceGraphic"/>
      </feMerge>
    </filter>

    <!-- Shadow for depth -->
    <filter id="shadow">
      <feDropShadow dx="0" dy="4" stdDeviation="12" flood-opacity="0.3"/>
    </filter>
  </defs>

  <!-- Dark background with rounded corners (iOS style) -->
  <rect width="1024" height="1024" fill="#0F172A" rx="180"/>

  <!-- Octopus Design - Geometric and Professional -->
  <g transform="translate(512, 512)" filter="url(#shadow)">

    <!-- Main body/head - Central circle -->
    <ellipse cx="0" cy="-80" rx="140" ry="160" fill="url(#fuekiGradient)" opacity="0.95"/>

    <!-- Eyes - Intelligent look -->
    <circle cx="-45" cy="-100" r="18" fill="#FFFFFF" opacity="0.9"/>
    <circle cx="45" cy="-100" r="18" fill="#FFFFFF" opacity="0.9"/>
    <circle cx="-45" cy="-100" r="10" fill="#0F172A"/>
    <circle cx="45" cy="-100" r="10" fill="#0F172A"/>

    <!-- Highlight in eyes for life -->
    <circle cx="-42" cy="-103" r="4" fill="#FFFFFF" opacity="0.8"/>
    <circle cx="48" cy="-103" r="4" fill="#FFFFFF" opacity="0.8"/>

    <!-- 8 Tentacles - Flowing, organic, symmetrical -->
    <!-- Each tentacle represents different crypto chains -->

    <!-- Tentacle 1 - Center front (BTC) -->
    <path d="M 0,40 Q 0,180 0,280 Q 0,320 -15,340"
          fill="none"
          stroke="url(#fuekiGradient)"
          stroke-width="32"
          stroke-linecap="round"
          opacity="0.9"/>

    <!-- Tentacle 2 - Front left (ETH) -->
    <path d="M -30,50 Q -60,160 -80,260 Q -90,300 -110,330"
          fill="none"
          stroke="url(#fuekiGradient)"
          stroke-width="30"
          stroke-linecap="round"
          opacity="0.85"/>

    <!-- Tentacle 3 - Front right (BSC) -->
    <path d="M 30,50 Q 60,160 80,260 Q 90,300 110,330"
          fill="none"
          stroke="url(#fuekiGradient)"
          stroke-width="30"
          stroke-linecap="round"
          opacity="0.85"/>

    <!-- Tentacle 4 - Left side (Polygon) -->
    <path d="M -80,20 Q -160,100 -220,180 Q -250,210 -280,230"
          fill="none"
          stroke="url(#fuekiGradient)"
          stroke-width="28"
          stroke-linecap="round"
          opacity="0.8"/>

    <!-- Tentacle 5 - Right side (Avalanche) -->
    <path d="M 80,20 Q 160,100 220,180 Q 250,210 280,230"
          fill="none"
          stroke="url(#fuekiGradient)"
          stroke-width="28"
          stroke-linecap="round"
          opacity="0.8"/>

    <!-- Tentacle 6 - Far left (Solana) -->
    <path d="M -100,-20 Q -200,20 -280,80 Q -320,110 -350,140"
          fill="none"
          stroke="url(#fuekiGradient)"
          stroke-width="26"
          stroke-linecap="round"
          opacity="0.75"/>

    <!-- Tentacle 7 - Far right (Arbitrum) -->
    <path d="M 100,-20 Q 200,20 280,80 Q 320,110 350,140"
          fill="none"
          stroke="url(#fuekiGradient)"
          stroke-width="26"
          stroke-linecap="round"
          opacity="0.75"/>

    <!-- Tentacle 8 - Back center (Optimism) -->
    <path d="M 0,-200 Q 0,-260 0,-300"
          fill="none"
          stroke="url(#fuekiGradient)"
          stroke-width="24"
          stroke-linecap="round"
          opacity="0.7"/>

    <!-- Suction cups on tentacles for detail -->
    <g opacity="0.6">
      <!-- Front tentacle cups -->
      <circle cx="-8" cy="140" r="12" fill="#3B82F6"/>
      <circle cx="8" cy="140" r="12" fill="#3B82F6"/>
      <circle cx="-10" cy="200" r="10" fill="#3B82F6"/>
      <circle cx="10" cy="200" r="10" fill="#3B82F6"/>

      <!-- Side tentacle cups -->
      <circle cx="-140" cy="80" r="10" fill="#3B82F6"/>
      <circle cx="140" cy="80" r="10" fill="#3B82F6"/>
      <circle cx="-180" cy="140" r="8" fill="#3B82F6"/>
      <circle cx="180" cy="140" r="8" fill="#3B82F6"/>
    </g>

    <!-- Subtle texture/pattern on body -->
    <ellipse cx="0" cy="-80" rx="120" ry="140" fill="none" stroke="#FFFFFF" stroke-width="2" opacity="0.1"/>

  </g>

  <!-- Subtle circular glow behind octopus -->
  <circle cx="512" cy="430" r="280" fill="#2563EB" opacity="0.08" filter="url(#glow)"/>

</svg>
